<svg class="svg_slider_icon svg_icon_zb" width="12" height="15">
    <defs>
        <linearGradient x1="41.309%" y1="32.314%" x2="71.734%" y2="100%" id="__gradient_zb_light">
            <stop stop-color="#FF9630" offset="0%"></stop>
            <stop stop-color="#FF9630" offset="0%"></stop>
            <stop stop-color="#FF1E1E" offset="100%"></stop>
        </linearGradient>
    </defs>
    <path class="path_1" d="M3.6 15C-.5 12.2-1.1 8.8 1.7 4.9 3.3 2.8 4.3 2.1 4.3 0c.4.2 5.1 2.6 4 7.5 1-.5 1.7-1.7 2-3.5 2.3 3.8 2.3 6.9-.1 9.4-.4.6-1.2 1.1-1.8 1.6-1.4-.6-3-1.9-3.6-5.6-1.3 1.4-1.7 3.3-1.2 5.6z"></path>
    <path class="path_2" d="M.3 7.7c.3-.9.7-1.8 1.4-2.8C3.3 2.8 4.3 2.1 4.3 0 4.5.1 5.8.8 7 2.1c.5 2.7-1.3 5.3-4 5.8-1 .2-1.9.1-2.7-.2z" fill="#ffb821"></path>
</svg>